<svg width="107" height="146" viewBox="0 0 107 146" fill="none" xmlns="http://www.w3.org/2000/svg">
<path d="M85.9489 10C83.8201 11.6329 80.9399 16.1548 77.9346 19.9231C77.8554 20.8551 77.861 21.3777 77.9346 22.3097C77.6937 22.7231 77.4457 22.8317 76.8075 22.8121C74.2178 21.8742 72.6971 21.5323 69.795 21.4304L46.1277 51.7022C45.5689 51.7695 45.2599 51.7931 44.7502 51.7022C41.3676 49.771 39.4797 49.0643 36.1098 47.6827C35.3023 47.5463 34.906 47.574 34.2314 47.6827C32.4323 49.0894 31.3734 49.8626 29.3477 51.1997C27.0936 51.8278 24.0883 47.9339 22.2099 51.1997L20.7072 57.7314C20.1146 60.1664 20.2363 61.3496 22.2099 62.7557L41.7448 74.8142C42.6379 74.9997 43.1861 75 44.2493 74.8142L53.8916 66.3984C54.7045 65.8947 55.1654 65.7267 56.0204 66.1472C57.1556 66.5471 57.7872 66.8829 58.9005 67.7801L61.1545 67.5289L66.2887 62.7557C67.0668 62.4321 67.5452 62.5067 68.4175 62.7557L74.804 65.896C75.8261 66.0529 76.249 65.9504 76.8075 65.5191L103.23 31.6047C103.411 30.912 103.436 30.5054 103.23 29.7206C101.789 28.2653 100.383 27.8274 97.219 27.4596C95.3964 26.9538 95.0482 26.4591 95.5911 25.1987L103.856 14.8987C104.106 14.2707 104.106 12.6378 103.23 12.6378L85.9489 10Z" fill="#8257E5"/>
<path d="M28.4711 70.6691L51.7627 85.7422C52.0132 85.9934 52.1384 86.4958 51.7627 86.747L43.498 87.6263L36.3602 94.158C35.6755 94.2015 35.2917 94.2245 34.6071 93.9067L28.2206 88.6312C28.1052 87.8731 28.0907 87.4577 28.2206 86.747L30.2242 79.3361C30.432 78.7233 30.434 78.3663 30.2242 77.7032L27.845 71.9252C27.4693 70.9203 28.2206 70.5435 28.4711 70.6691Z" fill="#8257E5"/>
<path d="M26.4675 92.0226L33.3548 97.5494V105.965L4.55332 134.981C4.02911 135.056 3.91739 134.922 4.05242 134.353C4.05242 134.353 12.0668 121.666 11.9415 121.666C11.8163 121.666 9.43705 122.294 9.43705 122.294C8.83277 122.401 8.71108 122.215 8.68571 121.666C12.8155 111.287 15.0193 105.498 19.455 95.0372C21.4211 93.7492 22.6055 93.076 24.9648 92.0226C25.5401 91.8056 25.8698 91.8197 26.4675 92.0226Z" fill="#8257E5"/>
<path d="M85.9489 10C83.8201 11.6329 80.9399 16.1548 77.9346 19.9231C77.8554 20.8551 77.861 21.3777 77.9346 22.3097C77.6937 22.7231 77.4457 22.8317 76.8075 22.8121C74.2178 21.8742 72.6971 21.5323 69.795 21.4304L46.1277 51.7022C45.5689 51.7695 45.2599 51.7931 44.7502 51.7022C41.3676 49.771 39.4797 49.0643 36.1098 47.6827C35.3023 47.5463 34.906 47.574 34.2314 47.6827C32.4323 49.0894 31.3734 49.8626 29.3477 51.1997C27.0936 51.8278 24.0883 47.9339 22.2099 51.1997L20.7072 57.7314C20.1146 60.1664 20.2363 61.3496 22.2099 62.7557L41.7448 74.8142C42.6379 74.9997 43.1861 75 44.2493 74.8142L53.8916 66.3984C54.7045 65.8947 55.1654 65.7267 56.0204 66.1472C57.1556 66.5471 57.7872 66.8829 58.9005 67.7801L61.1545 67.5289L66.2887 62.7557C67.0668 62.4321 67.5452 62.5067 68.4175 62.7557L74.804 65.896C75.8261 66.0529 76.249 65.9504 76.8075 65.5191L103.23 31.6047C103.411 30.912 103.436 30.5054 103.23 29.7206C101.789 28.2653 100.383 27.8274 97.219 27.4596C95.3964 26.9538 95.0482 26.4591 95.5911 25.1987L103.856 14.8987C104.106 14.2707 104.106 12.6378 103.23 12.6378L85.9489 10Z" stroke="#8257E5"/>
<path d="M28.4711 70.6691L51.7627 85.7422C52.0132 85.9934 52.1384 86.4958 51.7627 86.747L43.498 87.6263L36.3602 94.158C35.6755 94.2015 35.2917 94.2245 34.6071 93.9067L28.2206 88.6312C28.1052 87.8731 28.0907 87.4577 28.2206 86.747L30.2242 79.3361C30.432 78.7233 30.434 78.3663 30.2242 77.7032L27.845 71.9252C27.4693 70.9203 28.2206 70.5435 28.4711 70.6691Z" stroke="#8257E5"/>
<path d="M26.4675 92.0226L33.3548 97.5494V105.965L4.55332 134.981C4.02911 135.056 3.91739 134.922 4.05242 134.353C4.05242 134.353 12.0668 121.666 11.9415 121.666C11.8163 121.666 9.43705 122.294 9.43705 122.294C8.83277 122.401 8.71108 122.215 8.68571 121.666C12.8155 111.287 15.0193 105.498 19.455 95.0372C21.4211 93.7492 22.6055 93.076 24.9648 92.0226C25.5401 91.8056 25.8698 91.8197 26.4675 92.0226Z" stroke="#8257E5"/>
</svg>
